<svg width="100%" viewBox="0 0 680 810" xmlns="http://www.w3.org/2000/svg">
  <defs>
    <marker id="arrow" viewBox="0 0 10 10" refX="8" refY="5" markerWidth="6" markerHeight="6" orient="auto-start-reverse">
      <path d="M2 1L8 5L2 9" fill="none" stroke="#888780" stroke-width="1.5" stroke-linecap="round" stroke-linejoin="round"/>
    </marker>
    <style>
      text { font-family: Arial, sans-serif; fill: #2C2C2A; }
      .th { font-size: 14px; font-weight: 500; }
      .ts { font-size: 12px; font-weight: 400; fill: #5F5E5A; }
      .c-purple rect { fill: #EEEDFE; stroke: #534AB7; }
      .c-purple text { fill: #3C3489; }
      .c-purple .ts { fill: #534AB7; }
      .c-teal rect { fill: #E1F5EE; stroke: #0F6E56; }
      .c-teal text { fill: #085041; }
      .c-teal .ts { fill: #0F6E56; }
      .c-blue rect { fill: #E6F1FB; stroke: #185FA5; }
      .c-blue text { fill: #0C447C; }
      .c-blue .ts { fill: #185FA5; }
      .c-amber rect { fill: #FAEEDA; stroke: #854F0B; }
      .c-amber text { fill: #633806; }
      .c-amber .ts { fill: #854F0B; }
      .c-coral rect { fill: #FAECE7; stroke: #993C1D; }
      .c-coral text { fill: #712B13; }
      .c-coral .ts { fill: #993C1D; }
      .c-gray rect { fill: #F1EFE8; stroke: #5F5E5A; }
      .c-gray text { fill: #444441; }
      .c-gray .ts { fill: #5F5E5A; }
      .arr { stroke: #888780; stroke-width: 1.5; fill: none; }
    </style>
  </defs>
  <g class="c-gray"><rect x="270" y="20" width="140" height="44" rx="8" stroke-width="0.5"/><text class="th" x="340" y="42" text-anchor="middle" dominant-baseline="central">You</text></g>
  <line x1="340" y1="64" x2="340" y2="88" class="arr" marker-end="url(#arrow)"/>
  <g class="c-purple"><rect x="150" y="88" width="380" height="56" rx="8" stroke-width="0.5"/><text class="th" x="340" y="108" text-anchor="middle" dominant-baseline="central">Orchestrator</text><text class="ts" x="340" y="128" text-anchor="middle" dominant-baseline="central">reads task, delegates, synthesizes</text></g>
  <line x1="340" y1="144" x2="340" y2="176" class="arr" marker-end="url(#arrow)"/>
  <g class="c-teal"><rect x="190" y="176" width="300" height="56" rx="8" stroke-width="0.5"/><text class="th" x="340" y="196" text-anchor="middle" dominant-baseline="central">BA agent</text><text class="ts" x="340" y="216" text-anchor="middle" dominant-baseline="central">spec / clarify / constitution</text></g>
  <line x1="340" y1="232" x2="340" y2="260" stroke="#888780" stroke-width="0.5"/>
  <line x1="180" y1="260" x2="500" y2="260" stroke="#888780" stroke-width="0.5"/>
  <line x1="180" y1="260" x2="180" y2="292" class="arr" marker-end="url(#arrow)"/>
  <line x1="500" y1="260" x2="500" y2="292" class="arr" marker-end="url(#arrow)"/>
  <g class="c-teal"><rect x="60" y="292" width="240" height="56" rx="8" stroke-width="0.5"/><text class="th" x="180" y="312" text-anchor="middle" dominant-baseline="central">UX designer</text><text class="ts" x="180" y="332" text-anchor="middle" dominant-baseline="central">screens, states, copy</text></g>
  <g class="c-teal"><rect x="380" y="292" width="240" height="56" rx="8" stroke-width="0.5"/><text class="th" x="500" y="312" text-anchor="middle" dominant-baseline="central">Architect</text><text class="ts" x="500" y="332" text-anchor="middle" dominant-baseline="central">plan / data model / API</text></g>
  <line x1="180" y1="348" x2="180" y2="376" stroke="#888780" stroke-width="0.5"/>
  <line x1="500" y1="348" x2="500" y2="376" stroke="#888780" stroke-width="0.5"/>
  <line x1="115" y1="376" x2="565" y2="376" stroke="#888780" stroke-width="0.5"/>
  <line x1="115" y1="376" x2="115" y2="404" class="arr" marker-end="url(#arrow)"/>
  <line x1="265" y1="376" x2="265" y2="404" class="arr" marker-end="url(#arrow)"/>
  <line x1="415" y1="376" x2="415" y2="404" class="arr" marker-end="url(#arrow)"/>
  <line x1="565" y1="376" x2="565" y2="404" class="arr" marker-end="url(#arrow)"/>
  <g class="c-blue"><rect x="43" y="404" width="145" height="56" rx="8" stroke-width="0.5"/><text class="th" x="115" y="424" text-anchor="middle" dominant-baseline="central">Frontend</text><text class="ts" x="115" y="444" text-anchor="middle" dominant-baseline="central">React / UI</text></g>
  <g class="c-blue"><rect x="193" y="404" width="145" height="56" rx="8" stroke-width="0.5"/><text class="th" x="265" y="424" text-anchor="middle" dominant-baseline="central">Backend</text><text class="ts" x="265" y="444" text-anchor="middle" dominant-baseline="central">API / DB</text></g>
  <g class="c-blue"><rect x="343" y="404" width="145" height="56" rx="8" stroke-width="0.5"/><text class="th" x="415" y="424" text-anchor="middle" dominant-baseline="central">AI pipeline</text><text class="ts" x="415" y="444" text-anchor="middle" dominant-baseline="central">images / jobs</text></g>
  <g class="c-blue"><rect x="493" y="404" width="145" height="56" rx="8" stroke-width="0.5"/><text class="th" x="565" y="424" text-anchor="middle" dominant-baseline="central">Integrations</text><text class="ts" x="565" y="444" text-anchor="middle" dominant-baseline="central">payments/PDF</text></g>
  <line x1="115" y1="460" x2="115" y2="488" stroke="#888780" stroke-width="0.5"/>
  <line x1="265" y1="460" x2="265" y2="488" stroke="#888780" stroke-width="0.5"/>
  <line x1="415" y1="460" x2="415" y2="488" stroke="#888780" stroke-width="0.5"/>
  <line x1="565" y1="460" x2="565" y2="488" stroke="#888780" stroke-width="0.5"/>
  <line x1="115" y1="488" x2="565" y2="488" stroke="#888780" stroke-width="0.5"/>
  <line x1="190" y1="488" x2="190" y2="516" class="arr" marker-end="url(#arrow)"/>
  <line x1="490" y1="488" x2="490" y2="516" class="arr" marker-end="url(#arrow)"/>
  <g class="c-amber"><rect x="70" y="516" width="240" height="56" rx="8" stroke-width="0.5"/><text class="th" x="190" y="536" text-anchor="middle" dominant-baseline="central">Code reviewer</text><text class="ts" x="190" y="556" text-anchor="middle" dominant-baseline="central">logic / security / privacy</text></g>
  <g class="c-amber"><rect x="370" y="516" width="240" height="56" rx="8" stroke-width="0.5"/><text class="th" x="490" y="536" text-anchor="middle" dominant-baseline="central">Tester / QA</text><text class="ts" x="490" y="556" text-anchor="middle" dominant-baseline="central">unit / E2E / privacy</text></g>
  <line x1="190" y1="572" x2="190" y2="600" stroke="#888780" stroke-width="0.5"/>
  <line x1="490" y1="572" x2="490" y2="600" stroke="#888780" stroke-width="0.5"/>
  <line x1="190" y1="600" x2="490" y2="600" stroke="#888780" stroke-width="0.5"/>
  <line x1="340" y1="600" x2="340" y2="628" class="arr" marker-end="url(#arrow)"/>
  <g class="c-coral"><rect x="190" y="628" width="300" height="56" rx="8" stroke-width="0.5"/><text class="th" x="340" y="648" text-anchor="middle" dominant-baseline="central">DevOps</text><text class="ts" x="340" y="668" text-anchor="middle" dominant-baseline="central">branch / PR / deploy</text></g>
  <line x1="340" y1="684" x2="340" y2="708" class="arr" marker-end="url(#arrow)"/>
  <g class="c-gray"><rect x="250" y="708" width="180" height="44" rx="8" stroke-width="0.5"/><text class="th" x="340" y="730" text-anchor="middle" dominant-baseline="central">GitHub</text></g>
  <line x1="40" y1="766" x2="640" y2="766" stroke="#B4B2A9" stroke-width="0.5"/>
  <circle cx="54" cy="782" r="5" fill="#7F77DD"/>
  <text class="ts" x="64" y="786" dominant-baseline="central">orchestrator</text>
  <circle cx="168" cy="782" r="5" fill="#1D9E75"/>
  <text class="ts" x="178" y="786" dominant-baseline="central">spec + design</text>
  <circle cx="290" cy="782" r="5" fill="#378ADD"/>
  <text class="ts" x="300" y="786" dominant-baseline="central">build</text>
  <circle cx="354" cy="782" r="5" fill="#BA7517"/>
  <text class="ts" x="364" y="786" dominant-baseline="central">quality</text>
  <circle cx="430" cy="782" r="5" fill="#D85A30"/>
  <text class="ts" x="440" y="786" dominant-baseline="central">ship</text>
</svg>
